<svg width="230" height="55" xmlns="http://www.w3.org/2000/svg" class="iconLeft">
 <!---->

 <defs>
  <!---->
 </defs>
 <defs>
  <!---->
 </defs>
 <!---->
 <g>
  <title>Layer 1</title>
  <g transform="matrix(2.93914, 0, 0, 2.93914, 106.4, 122.798)" fill="#ffffff" id="00882bb0-bc4b-4080-9bb6-2fc335a0c7b3">
   <path id="svg_2" d="m-3.68835,-27.49892l-3.48,-9.77l-1.07,0l-3.46,9.77l0.84,0l1.06,-3.04l4.16,0l1.06,3.04l0.89,0zm-2.17,-3.77l-3.73,0l1.84,-5.2l0.05,0l1.84,5.2zm5.74,3.77l0,-0.7l-1.11,0l0,-9.66l-0.8,0l0,9.49c0,0.52 0.31,0.87 0.88,0.87l1.03,0zm1.79,0l0.8,0l0,-1.15l0.04,0c0.39,0.8 1.09,1.32 2.18,1.32c1.84,0 2.96,-1.39 2.96,-3.75c0,-2.37 -1.12,-3.76 -2.96,-3.76c-1.09,0 -1.83,0.52 -2.18,1.32l-0.04,0l0,-4.34l-0.8,0l0,10.36zm2.84,-0.55c-1.11,0 -2.04,-0.63 -2.04,-1.63l0,-2.85c0,-0.93 0.93,-1.59 2.04,-1.59c1.43,0 2.28,0.99 2.28,2.53l0,1.01c0,1.54 -0.85,2.53 -2.28,2.53zm10.93,0.55l0,-0.7l-0.96,0l0,-4.24c0,-1.51 -0.94,-2.4 -2.61,-2.4c-1.3,0 -2.1,0.62 -2.49,1.45l0.51,0.42c0.39,-0.75 1,-1.17 1.96,-1.17c1.21,0 1.83,0.61 1.83,1.78l0,0.84l-1.65,0c-2.07,0 -2.91,0.8 -2.91,2.07c0,1.33 0.86,2.12 2.36,2.12c1.12,0 1.85,-0.51 2.17,-1.3l0.07,0l0,0.25c0.04,0.53 0.3,0.88 0.91,0.88l0.81,0zm-3.85,-0.52c-0.98,0 -1.63,-0.45 -1.63,-1.27l0,-0.34c0,-0.8 0.61,-1.29 2.04,-1.29l1.68,0l0,1.33c0,0.97 -0.92,1.57 -2.09,1.57zm6.29,0.52l0,-5.04c0,-1.06 0.94,-1.58 1.95,-1.58c1.19,0 1.83,0.7 1.83,2.15l0,4.47l0.8,0l0,-4.61c0,-1.75 -0.9,-2.73 -2.42,-2.73c-1.15,0 -1.8,0.56 -2.12,1.31l-0.04,0l0,-1.14l-0.8,0l0,7.17l0.8,0zm9.65,0.17c1.35,0 2.35,-0.7 2.8,-1.75l-0.59,-0.39c-0.39,0.93 -1.15,1.44 -2.17,1.44c-1.47,0 -2.34,-1.05 -2.34,-2.55l0,-0.35l5.31,0l0,-0.38c0,-2.1 -1.19,-3.53 -3.03,-3.53c-1.9,0 -3.12,1.4 -3.12,3.76c0,2.35 1.22,3.75 3.14,3.75zm-0.02,-6.83c1.29,0 2.16,0.99 2.16,2.5l0,0.11l-4.44,0l0,-0.07c0,-1.51 0.9,-2.54 2.28,-2.54zm7.09,6.83c1.58,0 2.54,-0.8 2.54,-2.13c0,-1.15 -0.68,-1.78 -2.14,-2l-0.57,-0.09c-1.02,-0.16 -1.54,-0.49 -1.54,-1.31c0,-0.81 0.6,-1.29 1.62,-1.29c1,0 1.58,0.46 1.96,0.91l0.53,-0.49c-0.53,-0.64 -1.26,-1.11 -2.45,-1.11c-1.38,0 -2.43,0.68 -2.43,2.02c0,1.29 0.89,1.81 2.2,2l0.58,0.1c1.04,0.15 1.47,0.59 1.47,1.34c0,0.87 -0.63,1.36 -1.72,1.36c-0.95,0 -1.64,-0.38 -2.22,-1.15l-0.59,0.47c0.64,0.88 1.51,1.37 2.76,1.37zm5.04,-9.28c0.37,0 0.54,-0.21 0.54,-0.51l0,-0.14c0,-0.29 -0.17,-0.5 -0.54,-0.5c-0.38,0 -0.55,0.21 -0.55,0.5l0,0.14c0,0.3 0.17,0.51 0.55,0.51zm-0.4,9.11l0.8,0l0,-7.17l-0.8,0l0,7.17z"/>
  </g>
  <g transform="matrix(0.284983, 0, 0, 0.284983, 30.795, 113.536)" fill="#ffffff" id="7f73b7e0-fe04-4077-a5fe-06cca5cbff34">
   <path id="svg_3" d="m-40.06869,-349.50424c9,0 16.4,-6.7 17.6,-15.4l30.4,0l13,18.8c0.5,0.7 1.2,1 2,1l73.7,0c1.3,0 2.4,-1.1 2.4,-2.4c0,-1.3 -1.1,-2.4 -2.4,-2.4l-72.5,0l-13,-18.8c-0.5,-0.7 -1.2,-1 -2,-1l-31.7,0c-1.2,-8.7 -8.6,-15.4 -17.6,-15.4c-9.8,0 -17.8,8 -17.8,17.8s8.1,17.8 17.9,17.8zm0,-30.7c7.1,0 12.9,5.8 12.9,12.9c0,7.1 -5.8,12.9 -12.9,12.9c-7.1,0 -12.9,-5.8 -12.9,-12.9s5.7,-12.9 12.9,-12.9zm136.7,58.1l-76.7,0c-1.2,-8.7 -8.6,-15.4 -17.6,-15.4c-9.8,0 -17.8,8 -17.8,17.8s8,17.8 17.8,17.8c9,0 16.4,-6.7 17.6,-15.4l76.7,0c1.3,0 2.4,-1.1 2.4,-2.4c0,-1.3 -1.1,-2.4 -2.4,-2.4zm-94.3,15.4c-7.1,0 -12.9,-5.8 -12.9,-12.9s5.8,-13 12.9,-13c7.1,0 12.9,5.8 12.9,12.9c0,7.2 -5.8,13 -12.9,13z"/>
   <path id="svg_4" d="m96.63131,-291.30424l-66.9,0c-0.8,0 -1.6,0.4 -2.1,1.1l-9.4,15l-41.2,0l-10.2,-19c-0.4,-0.8 -1.2,-1.3 -2.1,-1.3l-21.6,0c-1.2,-8.7 -8.6,-15.4 -17.6,-15.4c-9.8,0 -17.8,8 -17.8,17.8s8,17.8 17.8,17.8c9,0 16.4,-6.7 17.6,-15.4l20.1,0l10.2,19c0.4,0.8 1.2,1.3 2.1,1.3l44,0c0.8,0 1.6,-0.4 2.1,-1.1l9.4,-15l65.5,0c1.3,0 2.4,-1.1 2.4,-2.4c0.1,-1.3 -1,-2.4 -2.3,-2.4zm-171.1,11.3c-7.1,0 -12.9,-5.8 -12.9,-12.9s5.8,-12.9 12.9,-12.9c7.1,0 12.9,5.8 12.9,12.9c0.1,7.1 -5.7,12.9 -12.9,12.9zm171.1,17l-38.6,0c-0.9,0 -1.7,0.5 -2.1,1.2l-11.4,19.4l-58.2,0c-1.2,-8.7 -8.6,-15.4 -17.6,-15.4c-9.8,0 -17.8,8 -17.8,17.8s8,17.8 17.8,17.8c9,0 16.4,-6.7 17.6,-15.4l59.6,0c0.9,0 1.7,-0.5 2.1,-1.2l11.4,-19.4l37.2,0c1.3,0 2.4,-1.1 2.4,-2.4c0,-1.3 -1.1,-2.4 -2.4,-2.4zm-127.9,36c-7.1,0 -12.9,-5.8 -12.9,-12.9c0,-7.1 5.8,-12.9 12.9,-12.9c7.1,0 12.9,5.8 12.9,12.9c0.1,7.1 -5.7,12.9 -12.9,12.9z"/>
  </g>
 </g>
</svg>